<svg width="52" height="31" viewBox="0 0 52 31" fill="none" xmlns="http://www.w3.org/2000/svg">
<rect width="52" height="30.315" rx="15.1575" fill="#1C00FF"/>
<path d="M14.1007 20.09C13.8957 20.09 13.7132 20.035 13.5532 19.925C13.3982 19.81 13.2882 19.655 13.2232 19.46L9.82566 10.1225C9.73566 9.8725 9.75566 9.6525 9.88566 9.4625C10.0207 9.2725 10.2132 9.1775 10.4632 9.1775C10.6082 9.1775 10.7432 9.225 10.8682 9.32C10.9932 9.41 11.0782 9.52 11.1232 9.65L13.6882 16.8875L14.1082 18.14H14.1532L14.5807 16.91L17.2282 9.6425C17.2732 9.5125 17.3557 9.405 17.4757 9.32C17.6007 9.23 17.7332 9.185 17.8732 9.185C18.1182 9.185 18.3032 9.28 18.4282 9.47C18.5582 9.655 18.5782 9.865 18.4882 10.1L14.9857 19.4675C14.9107 19.6625 14.7957 19.815 14.6407 19.925C14.4857 20.035 14.3057 20.09 14.1007 20.09ZM20.7487 20.075C20.5637 20.075 20.4037 20.0075 20.2687 19.8725C20.1337 19.7375 20.0662 19.575 20.0662 19.385V12.83C20.0662 12.645 20.1337 12.4875 20.2687 12.3575C20.4037 12.2225 20.5637 12.155 20.7487 12.155C20.9337 12.155 21.0912 12.2225 21.2212 12.3575C21.3562 12.4875 21.4237 12.645 21.4237 12.83V19.385C21.4237 19.575 21.3562 19.7375 21.2212 19.8725C21.0912 20.0075 20.9337 20.075 20.7487 20.075ZM20.7487 10.6325C20.5037 10.6325 20.2912 10.545 20.1112 10.37C19.9312 10.19 19.8412 9.9775 19.8412 9.7325C19.8412 9.4775 19.9312 9.2675 20.1112 9.1025C20.2912 8.9325 20.5037 8.8475 20.7487 8.8475C21.0087 8.8475 21.2212 8.9325 21.3862 9.1025C21.5562 9.2675 21.6412 9.4775 21.6412 9.7325C21.6412 9.9775 21.5562 10.19 21.3862 10.37C21.2212 10.545 21.0087 10.6325 20.7487 10.6325ZM26.9247 20.24C25.7647 20.24 24.8172 19.855 24.0822 19.085C23.3522 18.315 22.9872 17.3225 22.9872 16.1075C22.9872 14.9325 23.3447 13.9525 24.0597 13.1675C24.7747 12.3775 25.6997 11.9825 26.8347 11.9825C27.9547 11.9825 28.8497 12.3225 29.5197 13.0025C30.1947 13.6775 30.5322 14.5175 30.5322 15.5225V15.665C30.5322 15.87 30.4597 16.0475 30.3147 16.1975C30.1697 16.3425 29.9947 16.415 29.7897 16.415H23.7672V15.3275H29.1522V15.32C29.1272 14.715 28.9072 14.2075 28.4922 13.7975C28.0822 13.3875 27.5297 13.1825 26.8347 13.1825C26.0997 13.1825 25.4997 13.4475 25.0347 13.9775C24.5697 14.5025 24.3372 15.2125 24.3372 16.1075C24.3372 17.0225 24.5872 17.74 25.0872 18.26C25.5922 18.775 26.2272 19.0325 26.9922 19.0325C27.3172 19.0325 27.5972 18.9925 27.8322 18.9125C28.0722 18.8325 28.2872 18.7275 28.4772 18.5975C28.6672 18.4675 28.8347 18.3125 28.9797 18.1325C29.1197 17.9625 29.2697 17.855 29.4297 17.81C29.5897 17.765 29.7497 17.7925 29.9097 17.8925C30.0747 17.9875 30.1697 18.1225 30.1947 18.2975C30.2197 18.4675 30.1722 18.65 30.0522 18.845C29.8772 19.125 29.6297 19.3725 29.3097 19.5875C28.9947 19.7975 28.6497 19.9575 28.2747 20.0675C27.9047 20.1825 27.4547 20.24 26.9247 20.24ZM34.1948 20.09C33.9998 20.09 33.8248 20.03 33.6698 19.91C33.5148 19.79 33.4098 19.645 33.3548 19.475L31.3073 13.01C31.2373 12.78 31.2648 12.58 31.3898 12.41C31.5148 12.24 31.6873 12.155 31.9073 12.155C32.0523 12.155 32.1848 12.2025 32.3048 12.2975C32.4298 12.3875 32.5098 12.4975 32.5448 12.6275L33.9998 17.555L34.2323 18.3575H34.2773L34.5098 17.5925L36.0173 12.7625C36.0673 12.5975 36.1698 12.4525 36.3248 12.3275C36.4848 12.2025 36.6623 12.14 36.8573 12.14C37.0473 12.14 37.2198 12.2025 37.3748 12.3275C37.5298 12.4525 37.6323 12.595 37.6823 12.755L39.2048 17.5625L39.4448 18.3425H39.4898L39.7073 17.57L41.1698 12.6125C41.2098 12.4925 41.2873 12.3875 41.4023 12.2975C41.5223 12.2025 41.6523 12.155 41.7923 12.155C42.0123 12.155 42.1823 12.24 42.3023 12.41C42.4223 12.575 42.4448 12.7675 42.3698 12.9875L40.2998 19.475C40.2448 19.645 40.1398 19.79 39.9848 19.91C39.8298 20.025 39.6573 20.0825 39.4673 20.0825C39.2723 20.0825 39.0973 20.025 38.9423 19.91C38.7923 19.79 38.6898 19.6475 38.6348 19.4825L37.0523 14.555L36.8423 13.835H36.7973L36.5873 14.555L35.0273 19.475C34.9723 19.645 34.8673 19.79 34.7123 19.91C34.5573 20.03 34.3848 20.09 34.1948 20.09Z" fill="white"/>
</svg>
