<svg width="400" height="400" viewBox="0 0 400 400" fill="none" xmlns="http://www.w3.org/2000/svg">
<g clip-path="url(#clip0_328_166)">
<path d="M0.000427246 -0.000732422H400V399.999H0.000427246V-0.000732422Z" fill="#1C00FF"/>
<path d="M85.2905 286.043C104.913 277.542 115.049 253.767 115.049 188.954V171.893V151.421C115.176 100.539 70.1724 115.672 70.1724 99.5928C70.1724 90.1343 109.711 90.4496 157.534 90.4496C265.54 90.4496 171.165 92.2071 171.165 95.8573C171.165 97.1928 177.428 112.27 171.357 112.136C161.406 111.918 151.455 120.81 151.466 147.939L150.537 202.826C150.537 224.816 149.484 241.064 147.377 251.57C142.793 274.45 128.421 290.92 104.262 300.981C93.1111 305.61 82.3321 307.925 71.9249 307.925C51.6059 307.925 41.1273 303.977 40.1698 296.959C39.6793 293.365 40.0271 287.42 44.3191 284.979C59.0415 276.603 65.2429 294.729 85.2905 286.043Z" fill="white"/>
<path d="M222.294 131.104V176.729C222.294 182.812 222.938 186.603 224.226 188.102C225.514 189.601 229.196 190.35 235.274 190.35H243.773L245.318 190.218L249.645 190.086C250.675 189.997 251.654 189.953 252.581 189.953C263.706 189.953 273.544 186.581 282.095 179.837C290.645 173.092 294.92 164.386 294.92 153.718V148.164C294.92 137.232 290.671 128.437 282.172 121.781C273.673 115.125 261.276 112 245 112C237.04 112.129 232.819 112.193 232.338 112.193C228.012 112.193 225.256 113.317 224.071 115.566C222.887 117.814 222.294 122.993 222.294 131.104ZM170.477 112.125C165.892 112.17 39.351 92.7301 164.696 90.872C290.04 89.0139 303.285 86.6603 322.291 123.93C325.785 130.782 327.298 139.484 327.298 149.853C327.298 166.821 320.851 182.49 308.013 196.394C295.175 210.297 291.529 209.988 298.438 221.837C316.435 252.703 326.191 268.306 331.251 274.643C336.31 280.979 341.094 287.51 351.813 284.454C362.532 281.399 362.313 298.637 353.563 304.757C344.813 310.877 342.713 309.949 332.854 309.949C322.995 309.949 315.405 307.173 310.085 301.622C308.207 299.632 300.565 286.749 287.159 262.973C273.753 239.197 265.433 225.79 262.199 222.753C256.461 217.306 247.646 214.583 235.752 214.583C231.475 214.583 228.397 216.992 226.52 221.81C224.642 226.628 223.703 237.154 223.703 253.389C223.703 269.624 224.511 279.758 226.128 283.79C227.745 287.823 231.084 291.803 236.144 295.731C241.203 299.658 243.733 302.251 243.733 303.508C243.733 307.069 239.039 308.849 229.649 308.849L198.195 307.907C178.686 307.907 168.932 305.236 168.932 299.894C168.932 297.59 171.983 295.024 178.086 292.196C184.189 289.368 188.049 285.414 189.666 280.334C191.284 275.254 192.092 263.34 192.092 244.591V211.126L191.936 205.628C191.831 202.066 191.779 198.453 191.779 194.787L191.466 184.103C191.362 180.542 191.303 179.806 191.386 146.925C191.468 114.044 175.062 112.081 170.477 112.125Z" fill="white"/>
</g>
<defs>
<clipPath id="clip0_328_166">
<rect width="400" height="400" fill="white"/>
</clipPath>
</defs>
</svg>
